<svg width="459" height="286" viewBox="0 0 459 286" fill="none" xmlns="http://www.w3.org/2000/svg">
<path d="M131.967 188.912C127.33 181.415 125.012 164.435 125.012 137.97L125.154 129.501C125.154 128.944 125.291 128.528 125.565 128.255C125.85 127.982 126.129 127.845 126.403 127.845L126.814 127.703C134.518 126.872 141.684 123.75 148.313 118.335C154.942 112.92 158.256 106.695 158.256 99.6612C158.256 96.8855 157.539 94.4566 156.106 92.3748C154.662 90.293 152.76 88.7211 150.399 87.6591C148.039 86.5972 145.625 85.8086 143.159 85.2934C140.704 84.7887 138.27 84.5364 135.856 84.5364C131.599 84.5364 127.383 85.2303 123.21 86.6182C119.037 88.0061 115.369 90.2719 112.208 93.4157C109.057 96.5595 107.481 100.261 107.481 104.519C107.481 107.116 108.224 109.708 109.71 112.294C110.079 113.219 110.263 113.819 110.263 114.092C110.263 114.649 109.984 114.928 109.425 114.928C108.593 114.928 107.528 114.513 106.232 113.682C100.478 110.254 97.6011 106.138 97.6011 101.333C97.6011 95.0349 101.474 90.0827 109.22 86.4763C116.966 82.8699 126.076 81.0667 136.552 81.0667C140.082 81.0667 143.539 81.298 146.922 81.7606C150.305 82.2232 153.946 83.0118 157.845 84.1263C161.734 85.2303 164.864 87.0072 167.235 89.4571C169.595 91.9174 170.776 94.9035 170.776 98.4153C170.776 103.136 168.716 107.763 164.595 112.294C160.464 116.826 155.895 120.48 150.889 123.255C145.884 126.031 141.152 127.976 136.694 129.091C136.051 129.553 135.73 130.063 135.73 130.621C135.73 133.943 135.819 137.713 135.998 141.929C136.188 146.135 136.583 152.007 137.184 159.546C137.785 167.095 138.944 173.898 140.662 179.954C142.38 186.01 144.535 190.242 147.127 192.65C147.591 193.113 147.823 193.528 147.823 193.896C147.823 194.642 146.663 195.016 144.345 195.016C141.658 195.016 139.292 194.506 137.247 193.486C135.213 192.466 133.849 191.541 133.153 190.71C132.457 189.879 132.062 189.28 131.967 188.912ZM100.383 165.176C98.4441 169.613 96.3153 173.635 93.9969 177.241C91.6784 180.858 89.5443 183.681 87.5947 185.71C85.645 187.75 83.8377 189.464 82.1726 190.852C80.4969 192.24 79.148 193.165 78.1257 193.628L76.7346 194.322C76.1866 194.595 75.6334 194.732 75.0748 194.732C74.0526 194.732 73.5414 194.132 73.5414 192.934L73.9524 191.262C74.8798 188.675 78.0572 182.13 83.4846 171.627C88.912 161.123 94.039 151.618 98.8657 143.112C103.313 135.152 107.602 127.724 111.733 120.827C115.854 113.94 118.842 109.061 120.696 106.191L123.621 101.743C125.939 98.5993 128.305 96.1968 130.719 94.5355C133.132 92.8637 135.076 92.0278 136.552 92.0278C137.574 92.0278 138.085 92.4011 138.085 93.1476C138.085 93.6944 137.716 94.6617 136.979 96.0496C136.325 97.1641 133.748 101.769 129.248 109.865C124.759 117.961 119.426 127.813 113.251 139.421C107.086 151.039 102.797 159.624 100.383 165.176ZM184.687 140.194C185.804 137.881 186.362 135.846 186.362 134.09C186.362 132.608 185.899 131.867 184.971 131.867C184.413 131.867 183.786 132.03 183.09 132.356C182.395 132.671 181.862 133.018 181.494 133.396L180.798 133.948C177.921 136.44 174.327 140.998 170.017 147.622C165.707 154.236 163.552 158.468 163.552 160.318C163.552 160.686 163.641 160.87 163.82 160.87C164.379 160.87 165.607 160.408 167.504 159.482C169.411 158.557 172.151 156.381 175.724 152.953C179.286 149.536 182.273 145.283 184.687 140.194ZM178.427 171.973C183.348 167.442 190.399 159.945 199.578 149.483C199.852 149.21 200.084 149.073 200.273 149.073C200.452 149.073 200.542 149.257 200.542 149.625C200.542 151.381 199.847 153.095 198.455 154.767C191.595 162.348 185.525 168.682 180.245 173.771C176.345 177.662 171.708 181.389 166.334 184.953C160.949 188.518 156.496 190.3 152.976 190.3C148.708 190.3 146.574 187.335 146.574 181.405C146.574 171.605 150.215 161.338 157.497 150.603C164.779 139.868 173.194 132.603 182.742 128.807C186.726 127.146 190.341 126.315 193.587 126.315C197.212 126.315 199.025 127.75 199.025 130.621C199.025 135.983 195.22 142.134 187.611 149.073C180.002 156.013 171.471 161.286 162.018 164.892C161.649 164.987 161.323 165.313 161.038 165.87C159.647 169.666 158.951 173.041 158.951 175.995C158.951 179.328 160.206 180.995 162.714 180.995C166.697 180.995 171.935 177.988 178.427 171.973ZM220.302 173.771C216.129 177.756 211.423 181.484 206.185 184.953C200.948 188.423 196.516 190.158 192.891 190.158C188.633 190.158 186.505 186.872 186.505 180.301C186.505 173.361 188.96 165.66 193.871 157.196C198.782 148.732 205.021 141.492 212.588 135.478C220.144 129.464 227.305 126.457 234.071 126.457C237.685 126.457 239.493 127.798 239.493 130.479C239.493 135.105 236.479 140.331 230.451 146.156C229.903 146.713 228.701 147.685 226.846 149.073C224.992 150.461 223.69 151.155 222.942 151.155C222.478 151.155 222.246 150.924 222.246 150.461L222.673 149.215C226.383 142.644 228.238 137.644 228.238 134.217C228.238 132.366 227.632 131.441 226.42 131.441C223.543 131.441 219.901 134.243 215.496 139.847C211.091 145.441 207.266 151.823 204.02 158.994C200.774 166.164 199.151 171.832 199.151 175.995C199.151 179.328 200.358 180.995 202.771 180.995C206.944 180.995 212.187 177.988 218.5 171.973C223.411 167.442 230.456 159.945 239.635 149.483C239.92 149.21 240.151 149.073 240.331 149.073C240.52 149.073 240.615 149.257 240.615 149.625C240.615 151.381 239.92 153.095 238.528 154.767C231.668 162.348 225.592 168.682 220.302 173.771ZM245.626 173.771C234.771 183.949 227.816 189.038 224.76 189.038C223.179 189.038 222.389 187.976 222.389 185.852C222.389 183.729 223.221 180.627 224.886 176.547C226.562 172.478 228.232 168.919 229.897 165.87L232.411 161.422C239.451 149.121 244.783 140.283 248.408 134.91C249.979 132.597 251.992 130.631 254.447 129.012C256.913 127.393 259.21 126.583 261.339 126.583C262.077 126.583 262.446 126.909 262.446 127.561C262.446 128.024 262.124 128.902 261.482 130.195C260.364 132.235 257.63 137.092 253.277 144.768C248.914 152.454 246.316 157.08 245.484 158.647C241.679 165.313 239.777 169.755 239.777 171.973C239.777 172.804 240.057 173.219 240.615 173.219C241.542 173.219 244.509 170.906 249.515 166.28C253.414 162.4 258.562 156.801 264.959 149.483C265.233 149.21 265.465 149.073 265.655 149.073C265.834 149.073 265.924 149.257 265.924 149.625C265.924 151.381 265.228 153.095 263.837 154.767C256.976 162.348 250.906 168.682 245.626 173.771ZM264.121 118.682C261.803 118.682 260.644 117.294 260.644 114.518C260.644 111.921 261.618 109.308 263.568 106.68C265.518 104.04 267.652 102.721 269.97 102.721C272.753 102.721 274.144 104.293 274.144 107.437C274.144 110.023 273.074 112.547 270.935 115.007C268.806 117.457 266.535 118.682 264.121 118.682ZM262.588 172.257L256.881 182.241C256.418 183.071 256.186 183.907 256.186 184.748C256.186 186.41 257.487 187.24 260.09 187.24C262.778 187.24 265.607 186.015 268.579 183.566C271.541 181.116 274.207 178.156 276.578 174.686C278.939 171.216 281.115 167.747 283.107 164.277C285.098 160.807 286.606 157.821 287.628 155.319L289.303 151.707C291.717 145.693 292.923 141.298 292.923 138.522C292.923 136.577 292.228 135.604 290.837 135.604C289.994 135.604 289.156 135.883 288.323 136.44C285.362 138.291 281.257 143.033 276.009 150.666C270.771 158.3 266.298 165.497 262.588 172.257ZM286.521 118.13C287.164 118.13 287.485 118.498 287.485 119.234C287.485 120.527 286.721 123.024 285.193 126.725C283.665 130.426 282.158 133.759 280.672 136.724L278.317 141.298C278.222 141.487 278.175 141.671 278.175 141.85C278.175 142.134 278.264 142.276 278.443 142.276C278.633 142.276 278.912 142.092 279.281 141.724C279.566 141.261 279.982 140.704 280.53 140.052C281.089 139.4 282.206 138.175 283.881 136.377C285.546 134.569 287.143 132.997 288.671 131.662C290.199 130.316 291.964 129.086 293.967 127.971C295.959 126.867 297.74 126.315 299.31 126.315C302.935 126.315 304.748 129.275 304.748 135.194C304.748 140.01 303.309 145.93 300.432 152.953C300.432 153.142 299.9 154.441 298.836 156.849C297.761 159.256 296.064 162.353 293.745 166.138C291.427 169.934 288.787 173.614 285.826 177.178C282.854 180.742 279.165 183.818 274.76 186.404C270.355 189.001 265.834 190.3 261.197 190.3C259.901 190.3 258.694 190.137 257.577 189.811C256.47 189.485 255.638 189.159 255.079 188.833C254.521 188.507 254.152 188.344 253.973 188.344L252.993 188.912C250.484 192.613 246.496 199.458 241.026 209.447C235.557 219.435 231.199 227.81 227.953 234.571C227.489 235.401 226.889 236.51 226.151 237.898C225.403 239.286 223.964 241.783 221.835 245.39C219.696 248.996 217.678 252.166 215.781 254.9C213.884 257.634 211.797 260.131 209.521 262.391C207.245 264.662 205.321 265.798 203.751 265.798C202.824 265.798 202.36 265.383 202.36 264.552C202.36 262.05 205.074 255.641 210.501 245.327C215.918 235.012 221.366 225.271 226.846 216.102L235.051 202.507C248.498 179.102 258.979 160.502 266.493 146.708C266.672 146.34 266.946 145.809 267.315 145.115C267.694 144.421 268.437 143.08 269.544 141.093C270.661 139.106 271.73 137.208 272.753 135.399C273.764 133.601 274.966 131.614 276.357 129.438C277.748 127.261 279.049 125.363 280.261 123.744C281.463 122.125 282.622 120.785 283.739 119.723C284.846 118.661 285.773 118.13 286.521 118.13ZM337.992 140.194C339.098 137.881 339.652 135.846 339.652 134.09C339.652 132.608 339.188 131.867 338.26 131.867C337.712 131.867 337.091 132.03 336.395 132.356C335.7 132.671 335.162 133.018 334.783 133.396L334.087 133.948C331.221 136.44 327.627 140.998 323.306 147.622C318.996 154.236 316.841 158.468 316.841 160.318C316.841 160.686 316.936 160.87 317.125 160.87C317.684 160.87 318.912 160.408 320.809 159.482C322.705 158.557 325.44 156.381 329.013 152.953C332.585 149.536 335.578 145.283 337.992 140.194ZM331.732 171.973C336.643 167.442 343.688 159.945 352.867 149.483C353.151 149.21 353.383 149.073 353.562 149.073C353.752 149.073 353.847 149.257 353.847 149.625C353.847 151.381 353.151 153.095 351.76 154.767C344.9 162.348 338.824 168.682 333.534 173.771C329.645 177.662 325.008 181.389 319.623 184.953C314.248 188.518 309.796 190.3 306.265 190.3C302.008 190.3 299.879 187.335 299.879 181.405C299.879 171.605 303.515 161.338 310.786 150.603C318.068 139.868 326.489 132.603 336.047 128.807C340.031 127.146 343.646 126.315 346.892 126.315C350.506 126.315 352.314 127.75 352.314 130.621C352.314 135.983 348.514 142.134 340.916 149.073C333.307 156.013 324.771 161.286 315.307 164.892C314.939 164.987 314.617 165.313 314.343 165.87C312.952 169.666 312.256 173.041 312.256 175.995C312.256 179.328 313.505 180.995 316.003 180.995C319.997 180.995 325.24 177.988 331.732 171.973ZM372.485 171.421C370.819 175.953 368.18 179.77 364.565 182.872C360.94 185.973 357.578 188.076 354.479 189.18C351.37 190.295 348.562 190.852 346.054 190.852C339.288 190.852 335.905 188.213 335.905 182.935C335.905 177.572 338.872 172.715 344.805 168.362C347.587 166.333 350.601 164.992 353.847 164.34C354.311 164.34 354.543 164.524 354.543 164.892C354.543 165.081 354.448 165.265 354.258 165.444C351.94 167.21 349.737 169.944 347.65 173.645C345.564 177.346 344.52 180.585 344.52 183.36C344.52 186.136 345.68 187.524 347.998 187.524C349.853 187.524 351.687 186.757 353.499 185.222C355.312 183.697 356.682 182.151 357.609 180.585L359 178.361C360.855 175.396 362.404 170.675 363.648 164.198C364.902 157.721 365.713 151.986 366.082 146.991L366.509 139.5C366.509 138.753 366.367 138.38 366.082 138.38L365.529 138.664L351.76 154.767C350.738 155.965 350.043 156.565 349.674 156.565C349.21 156.565 348.978 156.244 348.978 155.603C348.978 154.394 349.305 153.468 349.958 152.827L351.207 151.297C361.777 139.447 367.805 132.277 369.291 129.785C370.682 127.65 372.722 125.8 375.409 124.233C378.001 122.751 381.063 122.009 384.593 122.009C385.521 122.009 385.984 122.377 385.984 123.113C385.984 123.576 385.61 123.997 384.862 124.375C384.588 124.459 384.24 124.664 383.819 124.99C383.408 125.316 382.67 126.078 381.606 127.277C380.531 128.486 379.577 129.874 378.744 131.441C377.912 133.018 377.169 135.215 376.516 138.033C375.873 140.862 375.551 143.984 375.551 147.402C375.551 158.042 374.529 166.049 372.485 171.421Z" fill="#CCCCCC"/>
</svg>
